<?xml version="1.0" encoding="utf-8"?>
<!-- Generator: Adobe Illustrator 21.1.0, SVG Export Plug-In . SVG Version: 6.00 Build 0)  -->
<svg version="1.1" id="Layer_1" xmlns="http://www.w3.org/2000/svg" xmlns:xlink="http://www.w3.org/1999/xlink" x="0px" y="0px"
	 viewBox="0 0 512 512" style="enable-background:new 0 0 512 512;" xml:space="preserve">
<style type="text/css">
	.st0{fill:#5C626B;}
	.st1{fill:#535860;}
	.st2{fill:#DFE0E0;}
	.st3{fill:#C9CACA;}
	.st4{fill:#FBE067;}
	.st5{fill:#E7CE5F;}
	.st6{fill:#494F57;}
	.st7{fill:#CB556A;}
	.st8{fill:#E15F76;}
	.st9{fill:#F7C2AD;}
</style>
<path class="st0" d="M126.7,319.9l-28.4,28.4l-53.5-53.5c-7.8-7.8-7.8-20.5,0-28.4c7.8-7.8,20.5-7.8,28.4,0L126.7,319.9z"/>
<path class="st1" d="M53.9,261.2c-3.3,0.9-6.4,2.6-9,5.2c-7.8,7.8-7.8,20.5,0,28.4l53.5,53.5l14.2-14.2l-53.5-53.5
	C53.8,275.4,52.1,267.9,53.9,261.2z"/>
<path class="st2" d="M98.3,348.3l28.4-28.4l77.3,77.3l-28.4,28.4L98.3,348.3z"/>
<path class="st3" d="M98.3,348.3l14.2-14.2l77.3,77.3l-14.2,14.2L98.3,348.3z"/>
<path class="st4" d="M151.5,320l-53.1,53.1c-1.6,1.6-4.3,1.6-5.9,0l-19-19c-1.6-1.6-1.6-4.3,0-5.9l53.1-53.1c1.6-1.6,4.3-1.6,5.9,0
	l19,19C153.1,315.7,153.1,318.4,151.5,320z"/>
<path class="st5" d="M112.1,353.6l-19-19c-1.6-1.6-1.6-4.3,0-5.9l-19.5,19.5c-1.6,1.6-1.6,4.3,0,5.9l19,19c1.6,1.6,4.3,1.6,5.9,0
	l19.5-19.5C116.3,355.2,113.7,355.2,112.1,353.6z"/>
<path class="st0" d="M385.3,319.9l28.4,28.4l53.5-53.5c7.8-7.8,7.8-20.5,0-28.4c-7.8-7.8-20.5-7.8-28.4,0L385.3,319.9z"/>
<path class="st1" d="M458.1,261.2c3.3,0.9,6.4,2.6,9,5.2c7.8,7.8,7.8,20.5,0,28.4l-53.5,53.5l-14.2-14.2l53.5-53.5
	C458.2,275.4,459.9,267.9,458.1,261.2z"/>
<path class="st2" d="M336.3,425.6L308,397.2l77.3-77.3l28.4,28.4L336.3,425.6z"/>
<path class="st3" d="M322.1,411.4l77.3-77.3l14.2,14.2l-77.3,77.3L322.1,411.4z"/>
<path class="st4" d="M360.5,320l53.1,53.1c1.6,1.6,4.3,1.6,5.9,0l19-19c1.6-1.6,1.6-4.3,0-5.9l-53.1-53.1c-1.6-1.6-4.3-1.6-5.9,0
	l-19,19C358.9,315.7,358.9,318.4,360.5,320z"/>
<path class="st5" d="M399.9,353.6l19-19c1.6-1.6,1.6-4.3,0-5.9l19.5,19.5c1.6,1.6,1.6,4.3,0,5.9l-19,19c-1.6,1.6-4.3,1.6-5.9,0
	L394,353.6C395.7,355.2,398.3,355.2,399.9,353.6z"/>
<path class="st6" d="M102.9,484.5c0-84.6,68.5-153.1,153.1-153.1c84.6,0,153.1,68.6,153.1,153.1H102.9z"/>
<path class="st1" d="M409.1,484.5H157.3L303,338.7C364.5,358.6,409.1,416.3,409.1,484.5z"/>
<path class="st7" d="M208.2,484.5h-50.9l145.7-145.7c12.3,4,24,9.5,34.7,16.2L208.2,484.5z"/>
<path class="st0" d="M102.9,484.5h251.8L209,338.7C147.5,358.6,102.9,416.3,102.9,484.5z"/>
<path class="st1" d="M270.4,332.1c-4.7-0.4-9.5-0.7-14.4-0.7c-84.6,0-153.1,68.6-153.1,153.1h28.8
	C131.6,404.8,192.6,339.3,270.4,332.1z"/>
<path class="st8" d="M303.8,484.5h50.9L209,338.7c-12.3,4-24,9.5-34.7,16.2L303.8,484.5z"/>
<path class="st7" d="M217.3,347l-8.3-8.3c-12.3,4-24,9.5-34.7,16.2l12.1,12.1C195.9,359.2,206.2,352.5,217.3,347z"/>
<path class="st0" d="M420.5,192c0,90.8-73.6,164.5-164.5,164.5c-90.8,0-164.5-73.6-164.5-164.5S165.2,27.5,256,27.5
	C346.8,27.5,420.5,101.1,420.5,192z"/>
<path class="st1" d="M119.1,192c0-86.2,66.3-156.9,150.7-163.9c-4.5-0.4-9.1-0.6-13.8-0.6c-90.8,0-164.5,73.6-164.5,164.5
	S165.2,356.5,256,356.5c4.6,0,9.2-0.2,13.8-0.6C185.4,348.9,119.1,278.2,119.1,192z"/>
<path class="st1" d="M91.5,192c0,4,0.1,8,0.4,12c0.6,0,1.3,0.1,1.9,0.1h324.3c0.6,0,1.3,0,1.9-0.1c0.3-4,0.4-7.9,0.4-12
	c0-12.5-1.4-24.7-4.1-36.4H95.6C92.9,167.3,91.5,179.5,91.5,192z"/>
<path class="st9" d="M316.3,261.9l-20.5-8.5c-25.4-10.6-54.1-10.6-79.5,0l-20.5,8.5c-24.5,10.2-51.6-7.8-51.6-34.4
	c0-20.6,16.7-37.3,37.3-37.3h149.2c20.6,0,37.3,16.7,37.3,37.3C367.9,254.1,340.8,272.2,316.3,261.9z"/>
<path class="st8" d="M93.8,190.3h324.3c6.4,0,11.5-5.4,11-11.8c-1.5-17.9-5.8-35.1-12.6-50.9c-1.7-4.1-5.7-6.7-10.1-6.7H105.6
	c-4.4,0-8.4,2.6-10.1,6.7c-6.8,15.9-11.1,33-12.6,50.9C82.4,184.8,87.4,190.3,93.8,190.3z"/>
<path class="st7" d="M110.5,178.4c1.5-17.9,5.8-35.1,12.6-50.9c1.7-4.1,5.7-6.7,10.1-6.7h-27.6c-4.4,0-8.4,2.6-10.1,6.7
	c-6.8,15.9-11.1,33-12.6,50.9c-0.5,6.4,4.6,11.8,11,11.8h27.6C115,190.3,109.9,184.8,110.5,178.4z"/>
<g>
	<path class="st6" d="M63,284.6l-14.2,14.2l9.8,9.8l14.2-14.2c2.7-2.7,2.7-7.1,0-9.8C70.1,281.9,65.7,281.9,63,284.6z"/>
	<path class="st6" d="M79.3,300.8L65.1,315l9.8,9.8L89,310.6c2.7-2.7,2.7-7.1,0-9.8C86.3,298.1,82,298.1,79.3,300.8z"/>
	<path class="st6" d="M449,284.6c-2.7-2.7-7.1-2.7-9.8,0c-2.7,2.7-2.7,7.1,0,9.8l14.2,14.2l9.8-9.8L449,284.6z"/>
	<path class="st6" d="M432.7,300.8c-2.7-2.7-7.1-2.7-9.8,0c-2.7,2.7-2.7,7.1,0,9.8l14.2,14.2l9.8-9.8L432.7,300.8z"/>
	<path class="st6" d="M314.6,232c-3.7,0-6.7-3-6.7-6.7v-10.4c0-3.7,3-6.7,6.7-6.7c3.7,0,6.7,3,6.7,6.7v10.4
		C321.3,229,318.3,232,314.6,232z"/>
	<path class="st6" d="M197.4,232c-3.7,0-6.7-3-6.7-6.7v-10.4c0-3.7,3-6.7,6.7-6.7c3.7,0,6.7,3,6.7,6.7v10.4
		C204.1,229,201.1,232,197.4,232z"/>
</g>
</svg>
