<?xml version="1.0" encoding="utf-8"?>
<!-- Generator: Adobe Illustrator 21.1.0, SVG Export Plug-In . SVG Version: 6.00 Build 0)  -->
<svg version="1.1" id="Layer_1" xmlns="http://www.w3.org/2000/svg" xmlns:xlink="http://www.w3.org/1999/xlink" x="0px" y="0px"
	 viewBox="0 0 512 512" style="enable-background:new 0 0 512 512;" xml:space="preserve">
<style type="text/css">
	.st0{fill:#6D6D6D;}
</style>
<path class="st0" d="M400,163.8h-33.3c-10.3,0-18.6-8.3-18.6-18.6v-13.3c0-23.8,7.6-47,21.6-66.1l41.8-57c0.2-0.3,0.3-0.5,0.5-0.8
	c0-0.1,0.1-0.2,0.1-0.2c0.1-0.2,0.2-0.4,0.2-0.6c0-0.1,0.1-0.2,0.1-0.3c0.1-0.2,0.1-0.4,0.1-0.6c0-0.1,0-0.2,0-0.2
	c0-0.2,0-0.5,0-0.7c0,0,0-0.1,0-0.1c0-0.9-0.3-1.7-0.7-2.4c0,0,0,0,0,0c-0.1-0.2-0.3-0.5-0.5-0.7c0,0,0,0,0,0c0,0,0,0,0,0
	c-1-1.2-2.5-2.1-4.3-2.1H275.8c-61.8,0-112,50.1-112,112v33.3c0,10.3-8.3,18.6-18.6,18.6h-13.3c-23.8,0-47-7.6-66.1-21.6l-57-41.8
	c-2.2-1.6-5.1-1.3-6.9,0.3c0,0,0,0,0,0c0,0,0,0,0,0c-0.1,0.1-0.1,0.1-0.2,0.2c-0.1,0.1-0.2,0.2-0.3,0.3c-0.1,0.1-0.1,0.1-0.2,0.2
	c-0.1,0.1-0.2,0.2-0.3,0.3c0,0.1-0.1,0.1-0.1,0.2c-0.1,0.2-0.2,0.4-0.3,0.6c0,0,0,0.1,0,0.1c-0.1,0.2-0.1,0.3-0.2,0.5
	c0,0.1,0,0.1-0.1,0.2c0,0.2-0.1,0.3-0.1,0.5c0,0.1,0,0.1,0,0.2c0,0.2-0.1,0.5-0.1,0.7v131.4c0,61.8,50.1,112,112,112h33.3
	c10.3,0,18.6,8.3,18.6,18.6v13.3c0,23.8-7.6,47-21.6,66.1l-41.8,57c-0.2,0.3-0.3,0.5-0.5,0.8c0,0.1-0.1,0.2-0.1,0.2
	c-0.1,0.2-0.2,0.4-0.2,0.6c0,0.1-0.1,0.2-0.1,0.3c-0.1,0.2-0.1,0.4-0.1,0.7c0,0.1,0,0.1,0,0.2c0,0.6,0,1.2,0.1,1.7
	c0,0.1,0,0.1,0.1,0.2c0.1,0.2,0.1,0.4,0.2,0.6c0,0.1,0.1,0.1,0.1,0.2c0.1,0.2,0.2,0.4,0.3,0.6c0,0,0.1,0.1,0.1,0.1
	c0.2,0.2,0.3,0.5,0.5,0.7c0,0,0,0,0,0c0,0,0,0,0,0c1,1.1,2.4,1.8,4,1.8h131.4c61.8,0,112-50.1,112-112v-33.3
	c0-10.3,8.3-18.6,18.6-18.6h13.3c23.8,0,47,7.6,66.1,21.6l57,41.8c2.2,1.6,5,1.3,6.8-0.2c0,0,0,0,0,0c0,0,0,0,0,0
	c0.1-0.1,0.2-0.2,0.3-0.3c0,0,0.1-0.1,0.1-0.1c0.1-0.1,0.2-0.2,0.3-0.3c0-0.1,0.1-0.1,0.1-0.2c0.1-0.2,0.2-0.4,0.4-0.5
	c0.1-0.1,0.1-0.2,0.2-0.3c0-0.1,0.1-0.2,0.1-0.3c0.1-0.1,0.1-0.3,0.1-0.4c0-0.1,0.1-0.2,0.1-0.3c0-0.2,0.1-0.3,0.1-0.5
	c0-0.1,0-0.2,0-0.2c0-0.2,0.1-0.5,0.1-0.7V275.8C512,213.9,461.9,163.8,400,163.8z M197.9,235.1v11.7c0,4.1-3.4,7.5-7.5,7.5
	c-4.1,0-7.5-3.4-7.5-7.5v-11.7c0-4.1,3.4-7.5,7.5-7.5C194.5,227.6,197.9,230.9,197.9,235.1z M184.5,261.4h11.7
	c4.1,0,7.5,3.4,7.5,7.5c0,4.1-3.4,7.5-7.5,7.5h-11.7c-4.1,0-7.5-3.4-7.5-7.5C177,264.7,180.4,261.4,184.5,261.4z M238.3,245.9h35.4
	v13.3c0,9.8-7.9,17.7-17.7,17.7s-17.7-7.9-17.7-17.7V245.9z M321.6,227.6c4.1,0,7.5,3.4,7.5,7.5v11.7c0,4.1-3.4,7.5-7.5,7.5
	c-4.1,0-7.5-3.4-7.5-7.5v-11.7C314.1,230.9,317.5,227.6,321.6,227.6z M327.5,276.4h-11.7c-4.1,0-7.5-3.4-7.5-7.5
	c0-4.1,3.4-7.5,7.5-7.5h11.7c4.1,0,7.5,3.4,7.5,7.5C335,273,331.6,276.4,327.5,276.4z"/>
</svg>
